<svg width="32" height="32" viewBox="0 0 32 32" fill="none" xmlns="http://www.w3.org/2000/svg">
<path d="M10.3855 7.20463C11.106 7.19126 11.8255 7.26513 12.5283 7.42464C13.12 7.55382 13.6818 7.79422 14.1838 8.13305C14.6475 8.46997 15.0143 8.92294 15.2476 9.44647C15.5156 10.0902 15.6449 10.7833 15.6271 11.4804C15.6575 12.2458 15.462 13.0033 15.065 13.6584C14.6472 14.2772 14.0699 14.7713 13.394 15.0885C14.3112 15.3357 15.11 15.9021 15.6469 16.6857C16.1623 17.516 16.4213 18.4798 16.3916 19.4566C16.4086 20.2354 16.2476 21.0078 15.9208 21.715C15.6187 22.3318 15.1764 22.8694 14.6294 23.2847C14.0661 23.6954 13.4323 23.9993 12.7593 24.1812C12.0615 24.3743 11.3405 24.4712 10.6165 24.4694H2.66666V7.20463H10.3855ZM9.92678 14.1875C10.4929 14.2109 11.0502 14.0414 11.5075 13.7068C11.7265 13.5119 11.8969 13.2684 12.005 12.9958C12.1131 12.7233 12.1559 12.4292 12.1301 12.1371C12.1448 11.796 12.0768 11.4564 11.9321 11.1471C11.8093 10.9009 11.6184 10.6951 11.3821 10.5542C11.1427 10.3991 10.8738 10.2953 10.5923 10.2495C10.2868 10.1903 9.97604 10.1634 9.66497 10.1692H6.26812V14.2029H9.92678V14.1875ZM10.1248 21.5379C10.4672 21.5425 10.8088 21.5056 11.1423 21.4279C11.447 21.3606 11.7361 21.2355 11.9937 21.0594C12.2461 20.8833 12.45 20.6465 12.5866 20.3707C12.745 20.0191 12.8177 19.635 12.7989 19.2498C12.8333 18.8988 12.7868 18.5446 12.663 18.2144C12.5393 17.8841 12.3415 17.5866 12.085 17.3446C11.5413 16.9441 10.8749 16.7457 10.2007 16.7836H6.26812V21.5379H10.1248Z" fill="black"/>
<path d="M21.521 21.4741C21.8037 21.7361 22.1367 21.9379 22.4997 22.0672C22.8628 22.1966 23.2484 22.2507 23.633 22.2265C24.2428 22.2419 24.8408 22.0564 25.3348 21.6985C25.7366 21.4372 26.0409 21.0505 26.2005 20.5985H29.0726C28.7666 21.8853 28.0193 23.0242 26.9606 23.8171C25.9449 24.4912 24.7447 24.8326 23.5263 24.7939C22.6568 24.8053 21.7938 24.6419 20.9886 24.3132C20.2602 24.0095 19.607 23.5503 19.0746 22.9679C18.5441 22.3576 18.1366 21.6505 17.8744 20.8856C17.5802 20.0305 17.4361 19.131 17.4487 18.2268C17.4434 17.3378 17.5922 16.4546 17.8887 15.6165C18.2871 14.4374 19.0487 13.4148 20.0643 12.6954C21.0799 11.9761 22.2973 11.5969 23.5417 11.6124C24.4605 11.5932 25.3691 11.8082 26.1818 12.2372C26.9164 12.64 27.5501 13.2042 28.0353 13.8872C28.5316 14.604 28.8873 15.4084 29.0836 16.2578C29.2989 17.1699 29.3756 18.1092 29.3113 19.0441H20.7565C20.6872 19.9225 20.9612 20.7936 21.521 21.4741ZM25.2743 14.9081C25.0349 14.6686 24.7469 14.4832 24.4299 14.3645C24.1128 14.2457 23.7739 14.1962 23.4361 14.2194C22.988 14.2024 22.5431 14.3016 22.1447 14.5077C21.8289 14.6815 21.5501 14.9154 21.3241 15.1963C21.1238 15.4596 20.9745 15.758 20.8841 16.0763C20.8026 16.3417 20.7517 16.6155 20.7323 16.8925H26.0311C25.9849 16.1705 25.7219 15.4792 25.2765 14.9092L25.2743 14.9081Z" fill="black"/>
<path d="M26.6889 8.35742H20.0492V10.0547H26.6889V8.35742Z" fill="black"/>
</svg>
