<svg width="32" height="32" viewBox="0 0 32 32" fill="none" xmlns="http://www.w3.org/2000/svg">
<path d="M32 15.7703C32 20.0094 31.2895 23.4479 30.4129 23.4479C29.5363 23.4479 28.8261 20.0103 28.8261 15.7703C28.8261 11.5302 29.5366 8.09259 30.4129 8.09259C31.2892 8.09259 32 11.5299 32 15.7703Z" fill="#1E1E1E"/>
<path d="M27.9504 15.7703C27.9504 20.5027 25.9301 24.3406 23.4379 24.3406C20.9456 24.3406 18.9253 20.5027 18.9253 15.7703C18.9253 11.0378 20.9453 7.19994 23.4375 7.19994C25.9298 7.19994 27.9501 11.0366 27.9501 15.7703" fill="#1E1E1E"/>
<path d="M18.0499 15.7703C18.0499 20.7979 14.0093 24.8736 9.02511 24.8736C4.04097 24.8736 0 20.797 0 15.7703C0 10.7436 4.04067 6.66667 9.02511 6.66667C14.0096 6.66667 18.0499 10.7426 18.0499 15.7703Z" fill="#1E1E1E"/>
</svg>
